HIERARCHY
ROOT ui
{
	 OFFSET 0 0 0
	 CHANNELS 3 XPosition YPosition Z Position
	 EndSite
	 {
	 OFFSET 0 -1 0
	 }
}
ROOT li
{
	 OFFSET 0 0 0
	 CHANNELS 3 XPosition YPosition Z Position
	 EndSite
	 {
	 OFFSET 0 -1 0
	 }
}
ROOT ul
{
	 OFFSET 0 0 0
	 CHANNELS 3 XPosition YPosition Z Position
	 EndSite
	 {
	 OFFSET 0 -1 0
	 }
}
ROOT ll
{
	 OFFSET 0 0 0
	 CHANNELS 3 XPosition YPosition Z Position
	 EndSite
	 {
	 OFFSET 0 -1 0
	 }
}
ROOT tt
{
	 OFFSET 0 0 0
	 CHANNELS 3 XPosition YPosition Z Position
	 EndSite
	 {
	 OFFSET 0 -1 0
	 }
}
ROOT tb
{
	 OFFSET 0 0 0
	 CHANNELS 3 XPosition YPosition Z Position
	 EndSite
	 {
	 OFFSET 0 -1 0
	 }
}
ROOT td
{
	 OFFSET 0 0 0
	 CHANNELS 3 XPosition YPosition Z Position
	 EndSite
	 {
	 OFFSET 0 -1 0
	 }
}
ROOT v
{
	 OFFSET 0 0 0
	 CHANNELS 3 XPosition YPosition Z Position
	 EndSite
	 {
	 OFFSET 0 -1 0
	 }
}
ROOT bn
{
	 OFFSET 0 0 0
	 CHANNELS 3 XPosition YPosition Z Position
	 EndSite
	 {
	 OFFSET 0 -1 0
	 }
}
MOTION
Frames: 19
Frame Time: 0.002
0.002274467945098877	0.0013734860420227051	0		0.6936953125	-2.65405029296875	0		-0.986249267578125	0.21516276550292968	0		-0.45977197265625	-2.85432568359375	0		1.510303466796875	-1.0126602783203125	0		3.0861572265625	-0.8664196166992187	0		4.623744140625	-0.07067704772949218	0		5.961693359375	0.3821655578613281	0		-0.3656231994628906	5.88917333984375	0		
0.0020568680763244627	0.0013111560344696044	0		0.6903768920898438	-2.659087158203125	0		-0.9905109252929688	0.211163818359375	0		-0.4321434020996094	-2.863714111328125	0		1.49739306640625	-0.9855929565429687	0		3.0999130859375	-0.8676968994140625	0		4.6231318359375	-0.10380902862548828	0		5.95788720703125	0.3647008361816406	0		-0.4149483337402344	5.8727021484375	0		
-0.0021972949504852294	-0.002698698043823242	0		0.6880819702148437	-2.6611376953125	0		-1.0656951904296874	0.21302618408203125	0		-0.5033786010742187	-2.859913330078125	0		1.494640625	-0.9456541748046875	0		3.091602294921875	-0.8747338256835937	0		4.618671875	-0.12492974853515625	0		5.9591484375	0.3608486022949219	0		-0.38093133544921876	5.87924755859375	0		
0.001655789017677307	0.0011999419927597047	0		0.6737527465820312	-2.665045654296875	0		-1.0558953857421876	0.2118883819580078	0		-0.4248648986816406	-2.8768955078125	0		1.455813232421875	-0.912291748046875	0		3.08154736328125	-0.860770263671875	0		4.6303046875	-0.13927821350097655	0		5.95900927734375	0.3604148864746094	0		-0.3847637023925781	5.89325390625	0		
0.001474743962287903	0.0011516820192337036	0		0.6676293334960938	-2.65105078125	0		-1.050128173828125	0.20681240844726562	0		-0.5039677734375	-2.85997705078125	0		1.4489794921875	-0.8803187255859375	0		3.0591396484375	-0.87668115234375	0		4.61789013671875	-0.1583737030029297	0		5.9562412109375	0.40323025512695315	0		-0.3516294250488281	5.89882421875	0		
0.0013080990314483642	0.0011087180376052857	0		0.7162294311523437	-2.65971826171875	0		-1.0562236328125	0.21189430236816406	0		-0.4394034729003906	-2.87077880859375	0		1.42118115234375	-0.8460986938476562	0		3.081999755859375	-0.8711557006835937	0		4.6124140625	-0.18358609008789062	0		5.9622392578125	0.34190347290039064	0		-0.39968984985351563	5.8833798828125	0		
0.0011565580368041992	0.0010711079835891723	0		0.6889244995117187	-2.659469970703125	0		-1.0563629150390625	0.21191845703125	0		-0.47875628662109376	-2.8733173828125	0		1.4143931884765626	-0.8121368408203125	0		3.025692138671875	-0.879693115234375	0		4.60002197265625	-0.20274603271484376	0		5.95134521484375	0.3242496948242187	0		-0.4156058349609375	5.874560546875	0		
0.001020495057106018	0.0010386290550231934	0		0.7115497436523438	-2.664828125	0		-0.9755642700195313	0.20496815490722656	0		-0.44917007446289064	-2.88068359375	0		1.4076064453125	-0.7791798095703125	0		3.01654736328125	-0.8758161010742187	0		4.598640625	-0.22206901550292968	0		5.9463662109375	0.3461464538574219	0		-0.41535348510742187	5.8745556640625	0		
-0.0031487340927124022	-0.0029397571086883546	0		0.6722255859375	-2.66542919921875	0		-1.05065185546875	0.20693199157714845	0		-0.4735970458984375	-2.88838330078125	0		1.413845947265625	-0.7453863525390625	0		3.01710498046875	-0.897074462890625	0		4.58424755859375	-0.24325868225097655	0		5.9582890625	0.3224967041015625	0		-0.38283935546875	5.8911640625	0		
0.005733168125152588	-0.004073967933654785	0		0.7357833251953125	-2.676294921875	0		-1.041642333984375	0.21487922668457032	0		-0.4719037780761719	-2.886394287109375	0		1.3950546875	-0.7152882080078125	0		3.02534912109375	-0.8634358520507812	0		4.591048828125	-0.24972750854492187	0		5.9582119140625	0.32164486694335936	0		-0.33426361083984374	5.90857666015625	0		
0.0037431719303131104	0.003930788040161132	0		0.6907381591796875	-2.654816650390625	0		-1.0417139892578124	0.21494602966308593	0		-0.45320748901367186	-2.88461083984375	0		1.431301513671875	-0.6838722534179688	0		2.962982177734375	-0.879931884765625	0		4.57766650390625	-0.27196142578125	0		5.94961376953125	0.3262071228027344	0		-0.3699006042480469	5.90603271484375	0		
6.317070126533508E-4	9.539039731025695E-4	0		0.7123490600585938	-2.66216455078125	0		-0.9758880004882813	0.20519451904296876	0		-0.45860140991210935	-2.890523681640625	0		1.3924100341796875	-0.6645213012695312	0		2.98690625	-0.87449853515625	0		4.5753310546875	-0.29133761596679686	0		5.9410263671875	0.3307555847167969	0		-0.3495506896972656	5.8997998046875	0		
5.706650018692017E-4	9.443219900131225E-4	0		0.6611266479492187	-2.6565927734375	0		-1.0509129638671875	0.20721397399902344	0		-0.46296063232421875	-2.894443115234375	0		1.3922918701171876	-0.6646502685546875	0		2.9567978515625	-0.8723863525390625	0		4.56400634765625	-0.31059954833984377	0		5.94151318359375	0.29523577880859375	0		-0.3349681091308594	5.91064306640625	0		
-0.003529274940490723	-0.003009458065032959	0		0.7216678466796875	-2.6714267578125	0		-1.05094482421875	0.20729881286621094	0		-0.5002541809082032	-2.89393896484375	0		1.389300048828125	-0.6557365112304687	0		2.967939208984375	-0.8517847290039062	0		4.5588291015625	-0.31892965698242187	0		5.945130859375	0.311536865234375	0		-0.31937503051757815	5.9214755859375	0		
4.8144298791885377E-4	9.391670227050781E-4	0		0.6724981689453124	-2.663862060546875	0		-1.0418658447265625	0.21527078247070314	0		-0.4536801452636719	-2.905496826171875	0		1.384295166015625	-0.6487896118164063	0		2.932486328125	-0.878583740234375	0		4.55569921875	-0.32427215576171875	0		5.93222509765625	0.304152587890625	0		-0.33405926513671874	5.9106943359375	0		
4.500040113925934E-4	9.434229731559754E-4	0		0.713299560546875	-2.660439453125	0		-1.0418800048828125	0.21535922241210936	0		-0.5028265686035156	-2.895826904296875	0		1.3752506103515625	-0.6457816772460937	0		2.95054931640625	-0.8660487060546875	0		4.55621728515625	-0.35764590454101564	0		5.92436328125	0.30530389404296876	0		-0.3336134338378906	5.9107255859375	0		
4.254710078239441E-4	9.522250294685363E-4	0		0.686072265625	-2.660136474609375	0		-1.05099072265625	0.20756536865234376	0		-0.4402347106933594	-2.9085927734375	0		1.3660347900390626	-0.656761474609375	0		2.9253955078125	-0.8709434814453125	0		4.55391943359375	-0.3769606323242187	0		5.939310546875	0.30232861328125	0		-0.3530904846191406	5.91801806640625	0		
-0.0036451900005340576	-0.0029821939468383787	0		0.7087933959960937	-2.665471435546875	0		-1.0509947509765625	0.20765481567382812	0		-0.47950030517578124	-2.911040283203125	0		1.2300836181640624	-0.6470794067382812	0		2.901367431640625	-0.8668305053710937	0		4.537744140625	-0.38706857299804687	0		5.93563525390625	0.284418701171875	0		-0.33376016235351563	5.911810546875	0		
3.9183399081230163E-4	9.83002007007599E-4	0		0.6685640258789063	-2.667978271484375	0		-1.045943603515625	0.21167721557617186	0		-0.4457524719238281	-2.9144345703125	0		1.170978271484375	-0.6503728637695313	0		2.9199921875	-0.8902540283203125	0		4.54441552734375	-0.40944509887695313	0		5.928498046875	0.28571438598632815	0		-0.3361949768066406	5.925888671875	0		
